<svg width="24" height="24" fill="none" xmlns="http://www.w3.org/2000/svg"><defs><clipPath id="a"><path fill="#fff" fill-opacity="0" d="M0 0h24v24H0z"/></clipPath></defs><path d="M0 0h24v24H0z"/><g clip-path="url(#a)" fill="#FFF"><path d="M11.999 7.377a4.624 4.624 0 100 9.248 4.624 4.624 0 000-9.248zm0 7.627a3.004 3.004 0 110-6.007 3.004 3.004 0 010 6.007z"/><path d="M17.884 7.207a1.078 1.078 0 11-2.156 0 1.078 1.078 0 012.156 0z" fill-rule="evenodd"/><path d="M20.533 6.111A4.604 4.604 0 0017.9 3.479a6.605 6.605 0 00-2.186-.42c-.963-.042-1.268-.054-3.71-.054s-2.755 0-3.71.054a6.556 6.556 0 00-2.184.42 4.6 4.6 0 00-2.633 2.632 6.585 6.585 0 00-.419 2.186c-.043.962-.056 1.267-.056 3.71 0 2.442 0 2.753.056 3.71.015.748.156 1.486.419 2.187a4.611 4.611 0 002.634 2.632 6.583 6.583 0 002.185.45c.963.042 1.268.055 3.71.055s2.755 0 3.71-.055a6.616 6.616 0 002.186-.419 4.613 4.613 0 002.633-2.633c.263-.7.404-1.438.419-2.186.043-.962.056-1.267.056-3.71s0-2.753-.056-3.71a6.582 6.582 0 00-.421-2.217zm-1.218 9.532a5.041 5.041 0 01-.311 1.688 2.988 2.988 0 01-1.712 1.711 4.99 4.99 0 01-1.67.311c-.95.044-1.218.055-3.654.055-2.438 0-2.687 0-3.655-.055a4.958 4.958 0 01-1.669-.311 2.986 2.986 0 01-1.719-1.71 5.083 5.083 0 01-.311-1.67c-.043-.95-.053-1.218-.053-3.654 0-2.437 0-2.686.053-3.655a5.038 5.038 0 01.311-1.687c.305-.79.93-1.41 1.719-1.712a5.012 5.012 0 011.669-.311c.951-.043 1.218-.055 3.655-.055s2.687 0 3.654.055c.57.007 1.135.112 1.67.311a2.99 2.99 0 011.712 1.712c.197.535.302 1.1.311 1.669.043.951.054 1.218.054 3.655 0 2.436 0 2.698-.043 3.654h-.011v-.001z"/></g></svg>