<svg width="20.951" height="28.951" fill="none" xmlns="http://www.w3.org/2000/svg"><path d="M10.471 0A10.48 10.48 0 000 10.427c0 4.15 2.329 7.626 4.036 10.16l.31.462a88.48 88.48 0 005.458 7.11l.676.792.676-.791a88.706 88.706 0 005.457-7.111l.311-.471c1.698-2.534 4.027-6 4.027-10.151A10.48 10.48 0 0010.471 0zm4.969 19.556l-.32.47c-1.529 2.294-3.555 4.863-4.649 6.134-1.049-1.271-3.12-3.84-4.649-6.133l-.31-.471C3.937 17.209 1.777 14 1.777 10.39a8.695 8.695 0 0117.386 0c0 3.645-2.15 6.853-3.724 9.165z" fill="#FFF"/></svg>