<svg width="96.94" height="12.797" fill="none" xmlns="http://www.w3.org/2000/svg"><path d="M10.696 2.382h-3.84v10.415H3.77V2.382H0V0h10.696v2.382zm9.656 5.897h-1.67v4.518h-3.085V0h5.036q2.277 0 3.56 1.01 1.283 1.011 1.283 2.857 0 1.336-.54 2.215-.541.879-1.692 1.424l2.671 5.159v.132h-3.304l-2.259-4.518zm-1.67-2.382h1.951q.88 0 1.323-.461.444-.461.444-1.288 0-.826-.448-1.296-.449-.47-1.319-.47h-1.951v3.515zm19.526 4.51H33.98l-.738 2.39h-3.296L34.64 0h2.9l4.73 12.797h-3.314l-.747-2.39zm-3.49-2.383h2.751l-1.38-4.438-1.37 4.438zM51.09 9.316L53.638 0h3.445l-4.306 12.797h-3.375L45.13 0h3.419l2.54 9.316zm18.462-1.942H64.7v3.05h5.73v2.373h-8.815V0h8.833v2.382H64.7V5.08h4.851v2.294zm8.821 3.05h5.37v2.373h-8.455V0h3.085v10.424zm13.989-4.518l1.38-2.619h3.076L94.312 7.92l2.628 4.878h-3.094l-1.494-2.813-1.468 2.813h-3.111L90.41 7.92l-2.496-4.632h3.11l1.337 2.62z" fill="#FFF" fill-rule="evenodd" opacity=".9"/></svg>