<svg width="20" height="13.941" fill="none" xmlns="http://www.w3.org/2000/svg"><path d="M17.945 3.474c.014.153.014.305.014.457 0 4.65-4.125 10.01-11.663 10.01-2.323 0-4.48-.578-6.296-1.58.33.032.647.043.99.043 1.845.004 3.638-.525 5.09-1.503a4.565 4.565 0 01-2.372-.692C3.02 9.77 2.509 9.16 2.246 8.462c.254.032.508.054.775.054a5.04 5.04 0 001.08-.12c-.93-.16-1.764-.592-2.363-1.222-.6-.629-.926-1.417-.925-2.23V4.9c.547.262 1.18.425 1.852.447a3.774 3.774 0 01-1.343-1.268 3.124 3.124 0 01-.484-1.662c0-.653.202-1.252.557-1.774C2.425 1.73 3.71 2.62 5.166 3.253a13.2 13.2 0 004.682 1.071 3.454 3.454 0 01-.101-.806c0-.462.105-.92.311-1.347.206-.426.508-.814.889-1.141.38-.327.832-.586 1.33-.763A4.69 4.69 0 0113.846 0c1.18 0 2.246.424 2.995 1.111a8.953 8.953 0 002.601-.85c-.306.813-.946 1.502-1.802 1.939A9.303 9.303 0 0020 1.655a8.233 8.233 0 01-2.055 1.82z" fill="#FFF"/></svg>